<?xml version="1.0" encoding="UTF-8"?>
<svg width="128px" height="24px" viewBox="0 0 128 24" version="1.1" xmlns="http://www.w3.org/2000/svg" xmlns:xlink="http://www.w3.org/1999/xlink">
    <title>Group 2</title>
    <g id="Page-1" stroke="none" stroke-width="1" fill="none" fill-rule="evenodd">
        <g id="iPad-Pro-12.9″" transform="translate(-370.000000, -390.000000)" fill-rule="nonzero">
            <g id="Group-2" transform="translate(370.179622, 391.000615)">
                <g id="TaskRabbit" transform="translate(0.000000, 0.000000)" fill="#254F17">
                    <path d="M4.27295339,4.3300919 L0.00295338818,4.3300919 L0.00295338818,3.0000919 C-0.0327529868,2.2131707 0.256555001,1.44616481 0.803066982,0.878851333 C1.34957896,0.311537858 2.1052477,-0.00620717741 2.89295339,-1.42108547e-14 L13.2129534,-1.42108547e-14 L13.2129534,4.2600919 L9.08295339,4.2600919 L9.08295339,18.9100919 L7.28295339,18.9100919 C5.62609914,18.9100919 4.28295339,17.5669462 4.28295339,15.9100919 L4.27295339,4.3300919 Z" id="Path"></path>
                    <path d="M26.1429534,18.9100919 L23.4429534,18.9100919 C23.0391157,18.918262 22.6492647,18.7621279 22.3627088,18.4774573 C22.076153,18.1927867 21.917449,17.8039747 21.9229534,17.4000919 L21.8229534,17.4000919 C21.1129534,18.7800919 19.3529534,19.4000919 17.7029534,19.4000919 C13.2329534,19.4000919 10.6129534,15.8800919 10.6129534,11.8400919 C10.6129534,7.2100919 13.9429534,4.3000919 17.7029534,4.3000919 C19.3313488,4.20136996 20.893224,4.9595618 21.8229534,6.3000919 L21.8729534,6.3000919 C21.8647818,5.89890641 22.0198618,5.51159802 22.3026574,5.22691711 C22.585453,4.94223619 22.9717225,4.78458614 23.3729534,4.7900919 L26.0929534,4.7900919 L26.1429534,18.9100919 Z M18.3929534,15.4300919 C19.3475248,15.444479 20.2660889,15.0660762 20.9335438,14.3834948 C21.6009988,13.7009133 21.9587251,12.7741013 21.9229534,11.8200919 C22.0564723,10.4794999 21.4131039,9.18028967 20.2659208,8.47390082 C19.1187377,7.76751198 17.6689919,7.77786731 16.5320166,8.50057157 C15.3950413,9.22327583 14.7702978,10.531544 14.9229534,11.8700919 C14.9007098,13.8103299 16.4527818,15.4026574 18.3929534,15.4300919 L18.3929534,15.4300919 Z" id="Shape"></path>
                    <path d="M34.1329534,8.7300919 C34.1329534,8.4500919 34.0529534,7.6700919 32.8129534,7.6700919 C31.9229534,7.6700919 31.6229534,8.2300919 31.6229534,8.6100919 C31.6229534,9.3700919 32.6229534,9.8100919 33.7829534,10.1400919 C36.1729534,10.8000919 38.7129534,11.5100919 38.7129534,14.5600919 C38.7129534,17.6100919 36.0929534,19.3400919 32.9729534,19.3400919 C30.8329534,19.3400919 27.6129534,18.3400919 27.2329534,14.6400919 L31.4229534,14.6400919 C31.4483019,15.0332911 31.6314988,15.3995523 31.9309233,15.6556638 C32.2303478,15.9117753 32.6205768,16.0359917 33.0129534,16.0000919 C33.7229534,16.0000919 34.4829534,15.6100919 34.4829534,14.9200919 C34.4829534,13.8300919 33.4829534,13.7100919 30.7429534,12.6600919 C28.9129534,12.0800919 27.3929534,10.8800919 27.3829534,8.9800919 C27.3829534,6.1800919 29.9229534,4.3200919 32.8529534,4.3200919 C34.7129534,4.3200919 37.9129534,5.0500919 38.2629534,8.7600919 L34.1329534,8.7300919 Z" id="Path"></path>
                    <path d="M39.7629534,15.1400919 L39.7629534,18.9100919 L44.0229534,18.9100919 L44.0229534,15.2000919 L44.0229534,15.2000919 L44.0229534,12.2000919 L44.0229534,12.2000919 C44.0229534,12.2000919 44.6129534,13.0700919 46.2629534,15.5900919 C48.4329534,18.9200919 52.7329534,18.9400919 52.9129534,18.9400919 L53.9129534,18.9400919 L53.9129534,15.2000919 L52.9129534,15.2000919 C52.9129534,15.2000919 50.3729534,15.2000919 49.2929534,13.5100919 L47.8229534,11.3000919 L47.6529534,11.0000919 L52.9629534,4.7800919 L47.9629534,4.7800919 L44.0529534,9.8700919 L44.0029534,9.8700919 L44.0029534,3.0000919 C44.0203937,2.20549086 43.707543,1.43923585 43.1389454,0.883905532 C42.5703478,0.328575218 41.7969213,0.0338994821 41.0029534,0.0700919042 L39.7629534,0.0700919042 L39.7629534,15.1400919 Z" id="Path"></path>
                </g>
                <g id="buddy" transform="translate(55.522378, 0.369385)" fill="#51AF33" stroke="#51AF33" stroke-width="1.6">
                    <path d="M1.863,6.555 C3.16633333,5.11366667 4.73033333,4.393 6.555,4.393 C8.37966667,4.393 9.91683333,5.04083333 11.1665,6.3365 C12.4161667,7.63216667 13.041,9.19233333 13.041,11.017 C13.041,12.8416667 12.4046667,14.4056667 11.132,15.709 C9.85933333,17.0123333 8.32216667,17.664 6.5205,17.664 C4.71883333,17.664 3.16633333,16.882 1.863,15.318 L1.863,17.25 L0,17.25 L0,0 L1.863,0 L1.863,6.555 Z M6.44,15.824 C7.74333333,15.824 8.85116667,15.341 9.7635,14.375 C10.6758333,13.409 11.132,12.2781667 11.132,10.9825 C11.132,9.68683333 10.6873333,8.556 9.798,7.59 C8.90866667,6.624 7.797,6.141 6.463,6.141 C5.129,6.141 4.0135,6.59333333 3.1165,7.498 C2.2195,8.40266667 1.771,9.54116667 1.771,10.9135 C1.771,12.2858333 2.22333333,13.4473333 3.128,14.398 C4.03266667,15.3486667 5.13666667,15.824 6.44,15.824 Z" id="Shape"></path>
                    <path d="M26.1525861,17.25 L24.2435861,17.25 L24.2435861,15.364 C23.0015861,16.836 21.5295861,17.572 19.8275861,17.572 C18.9229194,17.572 18.1025861,17.3381667 17.3665861,16.8705 C16.6305861,16.4028333 16.0785861,15.7588333 15.7105861,14.9385 C15.3425861,14.1181667 15.1585861,12.857 15.1585861,11.155 L15.1585861,4.715 L17.0445861,4.715 L17.0445861,10.695 C17.0445861,12.075 17.1097527,13.0141667 17.2400861,13.5125 C17.3704194,14.0108333 17.5620861,14.4325 17.8150861,14.7775 C18.0680861,15.1225 18.3900861,15.3793333 18.7810861,15.548 C19.1720861,15.7166667 19.6474194,15.801 20.2070861,15.801 C20.7667527,15.801 21.3149194,15.663 21.8515861,15.387 C22.3882527,15.111 22.8482527,14.7276667 23.2315861,14.237 C23.6149194,13.7463333 23.8794194,13.225 24.0250861,12.673 C24.1707527,12.121 24.2435861,11.017 24.2435861,9.361 L24.2435861,4.715 L26.1525861,4.715 L26.1525861,17.25 Z" id="Path"></path>
                    <path d="M41.6101722,17.25 L39.7471722,17.25 L39.7471722,15.41 C38.3825055,16.9126667 36.8070055,17.664 35.0206722,17.664 C33.2343388,17.664 31.7125055,17.0123333 30.4551722,15.709 C29.1978388,14.4056667 28.5691722,12.8416667 28.5691722,11.017 C28.5691722,9.19233333 29.2055055,7.63216667 30.4781722,6.3365 C31.7508388,5.04083333 33.3033388,4.393 35.1356722,4.393 C36.9680055,4.393 38.5051722,5.13666667 39.7471722,6.624 L39.7471722,0 L41.6101722,0 L41.6101722,17.25 Z M35.1701722,15.893 C36.3815055,15.893 37.4625055,15.4406667 38.4131722,14.536 C39.3638388,13.6313333 39.8391722,12.4851667 39.8391722,11.0975 C39.8391722,9.70983333 39.3983388,8.55216667 38.5166722,7.6245 C37.6350055,6.69683333 36.5233388,6.233 35.1816722,6.233 C33.8400055,6.233 32.7206722,6.71216667 31.8236722,7.6705 C30.9266722,8.62883333 30.4781722,9.75583333 30.4781722,11.0515 C30.4781722,12.3471667 30.9381722,13.478 31.8581722,14.444 C32.7781722,15.41 33.8821722,15.893 35.1701722,15.893 Z" id="Shape"></path>
                    <path d="M57.1367582,17.25 L55.2737582,17.25 L55.2737582,15.41 C53.9090916,16.9126667 52.3335916,17.664 50.5472582,17.664 C48.7609249,17.664 47.2390916,17.0123333 45.9817582,15.709 C44.7244249,14.4056667 44.0957582,12.8416667 44.0957582,11.017 C44.0957582,9.19233333 44.7320916,7.63216667 46.0047582,6.3365 C47.2774249,5.04083333 48.8299249,4.393 50.6622582,4.393 C52.4945916,4.393 54.0317582,5.13666667 55.2737582,6.624 L55.2737582,0 L57.1367582,0 L57.1367582,17.25 Z M50.6967582,15.893 C51.9080916,15.893 52.9890916,15.4406667 53.9397582,14.536 C54.8904249,13.6313333 55.3657582,12.4851667 55.3657582,11.0975 C55.3657582,9.70983333 54.9249249,8.55216667 54.0432582,7.6245 C53.1615916,6.69683333 52.0499249,6.233 50.7082582,6.233 C49.3665916,6.233 48.2472582,6.71216667 47.3502582,7.6705 C46.4532582,8.62883333 46.0047582,9.75583333 46.0047582,11.0515 C46.0047582,12.3471667 46.4647582,13.478 47.3847582,14.444 C48.3047582,15.41 49.4087582,15.893 50.6967582,15.893 Z" id="Shape"></path>
                    <polygon id="Path" points="70.8463443 4.715 63.4173443 21.689 61.4393443 21.689 63.8543443 16.169 58.7713443 4.715 60.7493443 4.715 64.8663443 13.892 68.8453443 4.715"></polygon>
                </g>
            </g>
        </g>
    </g>
</svg>