<?xml version="1.0" encoding="UTF-8"?>
<svg width="152px" height="27px" viewBox="0 0 152 27" version="1.1" xmlns="http://www.w3.org/2000/svg" xmlns:xlink="http://www.w3.org/1999/xlink">
    <title>Group 2</title>
    <g id="Page-1" stroke="none" stroke-width="1" fill="none" fill-rule="evenodd">
        <g id="iPad-Pro-12.9″" transform="translate(-370.000000, -372.000000)" fill-rule="nonzero">
            <g id="Group-2" transform="translate(370.179622, 373.750000)">
                <g id="TaskRabbit" transform="translate(0.000000, 1.250615)" fill="#254F17">
                    <path d="M4.27295339,4.3300919 L0.00295338818,4.3300919 L0.00295338818,3.0000919 C-0.0327529868,2.2131707 0.256555001,1.44616481 0.803066982,0.878851333 C1.34957896,0.311537858 2.1052477,-0.00620717741 2.89295339,-1.42108547e-14 L13.2129534,-1.42108547e-14 L13.2129534,4.2600919 L9.08295339,4.2600919 L9.08295339,18.9100919 L7.28295339,18.9100919 C5.62609914,18.9100919 4.28295339,17.5669462 4.28295339,15.9100919 L4.27295339,4.3300919 Z" id="Path"></path>
                    <path d="M26.1429534,18.9100919 L23.4429534,18.9100919 C23.0391157,18.918262 22.6492647,18.7621279 22.3627088,18.4774573 C22.076153,18.1927867 21.917449,17.8039747 21.9229534,17.4000919 L21.8229534,17.4000919 C21.1129534,18.7800919 19.3529534,19.4000919 17.7029534,19.4000919 C13.2329534,19.4000919 10.6129534,15.8800919 10.6129534,11.8400919 C10.6129534,7.2100919 13.9429534,4.3000919 17.7029534,4.3000919 C19.3313488,4.20136996 20.893224,4.9595618 21.8229534,6.3000919 L21.8729534,6.3000919 C21.8647818,5.89890641 22.0198618,5.51159802 22.3026574,5.22691711 C22.585453,4.94223619 22.9717225,4.78458614 23.3729534,4.7900919 L26.0929534,4.7900919 L26.1429534,18.9100919 Z M18.3929534,15.4300919 C19.3475248,15.444479 20.2660889,15.0660762 20.9335438,14.3834948 C21.6009988,13.7009133 21.9587251,12.7741013 21.9229534,11.8200919 C22.0564723,10.4794999 21.4131039,9.18028967 20.2659208,8.47390082 C19.1187377,7.76751198 17.6689919,7.77786731 16.5320166,8.50057157 C15.3950413,9.22327583 14.7702978,10.531544 14.9229534,11.8700919 C14.9007098,13.8103299 16.4527818,15.4026574 18.3929534,15.4300919 L18.3929534,15.4300919 Z" id="Shape"></path>
                    <path d="M34.1329534,8.7300919 C34.1329534,8.4500919 34.0529534,7.6700919 32.8129534,7.6700919 C31.9229534,7.6700919 31.6229534,8.2300919 31.6229534,8.6100919 C31.6229534,9.3700919 32.6229534,9.8100919 33.7829534,10.1400919 C36.1729534,10.8000919 38.7129534,11.5100919 38.7129534,14.5600919 C38.7129534,17.6100919 36.0929534,19.3400919 32.9729534,19.3400919 C30.8329534,19.3400919 27.6129534,18.3400919 27.2329534,14.6400919 L31.4229534,14.6400919 C31.4483019,15.0332911 31.6314988,15.3995523 31.9309233,15.6556638 C32.2303478,15.9117753 32.6205768,16.0359917 33.0129534,16.0000919 C33.7229534,16.0000919 34.4829534,15.6100919 34.4829534,14.9200919 C34.4829534,13.8300919 33.4829534,13.7100919 30.7429534,12.6600919 C28.9129534,12.0800919 27.3929534,10.8800919 27.3829534,8.9800919 C27.3829534,6.1800919 29.9229534,4.3200919 32.8529534,4.3200919 C34.7129534,4.3200919 37.9129534,5.0500919 38.2629534,8.7600919 L34.1329534,8.7300919 Z" id="Path"></path>
                    <path d="M39.7629534,15.1400919 L39.7629534,18.9100919 L44.0229534,18.9100919 L44.0229534,15.2000919 L44.0229534,15.2000919 L44.0229534,12.2000919 L44.0229534,12.2000919 C44.0229534,12.2000919 44.6129534,13.0700919 46.2629534,15.5900919 C48.4329534,18.9200919 52.7329534,18.9400919 52.9129534,18.9400919 L53.9129534,18.9400919 L53.9129534,15.2000919 L52.9129534,15.2000919 C52.9129534,15.2000919 50.3729534,15.2000919 49.2929534,13.5100919 L47.8229534,11.3000919 L47.6529534,11.0000919 L52.9629534,4.7800919 L47.9629534,4.7800919 L44.0529534,9.8700919 L44.0029534,9.8700919 L44.0029534,3.0000919 C44.0203937,2.20549086 43.707543,1.43923585 43.1389454,0.883905532 C42.5703478,0.328575218 41.7969213,0.0338994821 41.0029534,0.0700919042 L39.7629534,0.0700919042 L39.7629534,15.1400919 Z" id="Path"></path>
                </g>
                <g id="budddy" transform="translate(55.670378, 0.000000)" fill="#51AF33" stroke="#51AF33" stroke-width="2">
                    <path d="M2.025,7.125 C3.44166667,5.55833333 5.14166667,4.775 7.125,4.775 C9.10833333,4.775 10.7791667,5.47916667 12.1375,6.8875 C13.4958333,8.29583333 14.175,9.99166667 14.175,11.975 C14.175,13.9583333 13.4833333,15.6583333 12.1,17.075 C10.7166667,18.4916667 9.04583333,19.2 7.0875,19.2 C5.12916667,19.2 3.44166667,18.35 2.025,16.65 L2.025,18.75 L0,18.75 L0,0 L2.025,0 L2.025,7.125 Z M7,17.2 C8.41666667,17.2 9.62083333,16.675 10.6125,15.625 C11.6041667,14.575 12.1,13.3458333 12.1,11.9375 C12.1,10.5291667 11.6166667,9.3 10.65,8.25 C9.68333333,7.2 8.475,6.675 7.025,6.675 C5.575,6.675 4.3625,7.16666667 3.3875,8.15 C2.4125,9.13333333 1.925,10.3708333 1.925,11.8625 C1.925,13.3541667 2.41666667,14.6166667 3.4,15.65 C4.38333333,16.6833333 5.58333333,17.2 7,17.2 Z" id="Shape"></path>
                    <path d="M28.426724,18.75 L26.351724,18.75 L26.351724,16.7 C25.001724,18.3 23.401724,19.1 21.551724,19.1 C20.5683907,19.1 19.676724,18.8458333 18.876724,18.3375 C18.076724,17.8291667 17.476724,17.1291667 17.076724,16.2375 C16.676724,15.3458333 16.476724,13.975 16.476724,12.125 L16.476724,5.125 L18.526724,5.125 L18.526724,11.625 C18.526724,13.125 18.5975573,14.1458333 18.739224,14.6875 C18.8808907,15.2291667 19.089224,15.6875 19.364224,16.0625 C19.639224,16.4375 19.989224,16.7166667 20.414224,16.9 C20.839224,17.0833333 21.3558907,17.175 21.964224,17.175 C22.5725573,17.175 23.1683907,17.025 23.751724,16.725 C24.3350573,16.425 24.8350573,16.0083333 25.251724,15.475 C25.6683907,14.9416667 25.9558907,14.375 26.114224,13.775 C26.2725573,13.175 26.351724,11.975 26.351724,10.175 L26.351724,5.125 L28.426724,5.125 L28.426724,18.75 Z" id="Path"></path>
                    <path d="M45.228448,18.75 L43.203448,18.75 L43.203448,16.75 C41.7201147,18.3833333 40.0076147,19.2 38.065948,19.2 C36.1242813,19.2 34.4701147,18.4916667 33.103448,17.075 C31.7367813,15.6583333 31.053448,13.9583333 31.053448,11.975 C31.053448,9.99166667 31.7451147,8.29583333 33.128448,6.8875 C34.5117813,5.47916667 36.1992813,4.775 38.190948,4.775 C40.1826147,4.775 41.853448,5.58333333 43.203448,7.2 L43.203448,0 L45.228448,0 L45.228448,18.75 Z M38.228448,17.275 C39.5451147,17.275 40.7201147,16.7833333 41.753448,15.8 C42.7867813,14.8166667 43.303448,13.5708333 43.303448,12.0625 C43.303448,10.5541667 42.8242813,9.29583333 41.865948,8.2875 C40.9076147,7.27916667 39.6992813,6.775 38.240948,6.775 C36.7826147,6.775 35.565948,7.29583333 34.590948,8.3375 C33.615948,9.37916667 33.128448,10.6041667 33.128448,12.0125 C33.128448,13.4208333 33.628448,14.65 34.628448,15.7 C35.628448,16.75 36.828448,17.275 38.228448,17.275 Z" id="Shape"></path>
                    <path d="M62.105172,18.75 L60.080172,18.75 L60.080172,16.75 C58.5968387,18.3833333 56.8843387,19.2 54.942672,19.2 C53.0010053,19.2 51.3468387,18.4916667 49.980172,17.075 C48.6135053,15.6583333 47.930172,13.9583333 47.930172,11.975 C47.930172,9.99166667 48.6218387,8.29583333 50.005172,6.8875 C51.3885053,5.47916667 53.0760053,4.775 55.067672,4.775 C57.0593387,4.775 58.730172,5.58333333 60.080172,7.2 L60.080172,0 L62.105172,0 L62.105172,18.75 Z M55.105172,17.275 C56.4218387,17.275 57.5968387,16.7833333 58.630172,15.8 C59.6635053,14.8166667 60.180172,13.5708333 60.180172,12.0625 C60.180172,10.5541667 59.7010053,9.29583333 58.742672,8.2875 C57.7843387,7.27916667 56.5760053,6.775 55.117672,6.775 C53.6593387,6.775 52.442672,7.29583333 51.467672,8.3375 C50.492672,9.37916667 50.005172,10.6041667 50.005172,12.0125 C50.005172,13.4208333 50.505172,14.65 51.505172,15.7 C52.505172,16.75 53.705172,17.275 55.105172,17.275 Z" id="Shape"></path>
                    <path d="M78.981896,18.75 L76.956896,18.75 L76.956896,16.75 C75.4735627,18.3833333 73.7610627,19.2 71.819396,19.2 C69.8777293,19.2 68.2235627,18.4916667 66.856896,17.075 C65.4902293,15.6583333 64.806896,13.9583333 64.806896,11.975 C64.806896,9.99166667 65.4985627,8.29583333 66.881896,6.8875 C68.2652293,5.47916667 69.9527293,4.775 71.944396,4.775 C73.9360627,4.775 75.606896,5.58333333 76.956896,7.2 L76.956896,0 L78.981896,0 L78.981896,18.75 Z M71.981896,17.275 C73.2985627,17.275 74.4735627,16.7833333 75.506896,15.8 C76.5402293,14.8166667 77.056896,13.5708333 77.056896,12.0625 C77.056896,10.5541667 76.5777293,9.29583333 75.619396,8.2875 C74.6610627,7.27916667 73.4527293,6.775 71.994396,6.775 C70.5360627,6.775 69.319396,7.29583333 68.344396,8.3375 C67.369396,9.37916667 66.881896,10.6041667 66.881896,12.0125 C66.881896,13.4208333 67.381896,14.65 68.381896,15.7 C69.381896,16.75 70.581896,17.275 71.981896,17.275 Z" id="Shape"></path>
                    <polygon id="Path" points="93.88362 5.125 85.80862 23.575 83.65862 23.575 86.28362 17.575 80.75862 5.125 82.90862 5.125 87.38362 15.1 91.70862 5.125"></polygon>
                </g>
            </g>
        </g>
    </g>
</svg>